<?xml version="1.0"?><svg version="1.2" baseProfile="tiny-ps" viewBox="0 0 300 300" xmlns="http://www.w3.org/2000/svg" xmlns:xlink="http://www.w3.org/1999/xlink"><title>GreenStar</title><g><g fill="#fcfcfb" transform="matrix(.1 0 0 -.1 0 300)"><path d="M0 1500V0h3000v3000H0V1500z"/></g><g fill="#d6dac4" transform="matrix(.1 0 0 -.1 0 300)"><path d="M680 2969c-25-17-59-44-76-61l-32-30-6 11c-4 6-12 11-17 11h-9l16-25 17-25 129-65 129-65h67l6 15 5 15-19 58c-10 31-30 86-43 122l-25 65-48 2-49 3-45-31zm796-16c15-27 38-62 50-80l24-31 20 5 20 5v52c0 28-3 61-6 74l-6 22h-129l27-47zm310 15c-3-18-8-43-10-55l-5-23 15-15c21-21 49-19 98 7 49 27 142 93 151 108l6 10h-249l-6-32zm600-52c-57-105-115-178-254-321-183-188-283-295-403-435-64-74-130-150-147-167l-30-33h-34l6 28c3 15 8 48 12 75l6 47h-30l-25-30-26-30-11 57c-7 31-19 78-26 105l-15 48h-30l-30-49-30-48-62 59c-94 93-211 163-512 303-66 31-169 85-230 121l-111 64-62 55c-35 30-67 55-71 55-5 0-15-7-22-17l-14-16 1-286 2-286 11-142c18-231 61-461 112-598l30-80 44-65 44-65-42-12c-23-6-54-14-69-17l-28-6v-12c0-6 23-34 51-61l52-50-89 5-89 4-33 18c-18 9-41 16-50 14l-16-3 36-41 37-40 53-26c29-14 71-29 93-33s46-11 54-15l13-7-68-28-69-28-100-4-100-5-40 15c-22 8-48 18-57 22l-18 7V712l63-58 62-59 3-31c4-60 51-162 85-185l10-7-7-18-7-17-29 47c-16 25-38 63-49 84-26 51-109 162-121 162H0V228l18 7c69 28 134 47 175 50l47 3 37-11 36-11 23-26c13-14 41-46 64-72l41-46 61-37 61-36 85-24C750-5 761-5 853 21c131 38 172 49 180 49 4 0 7-11 7-25V19l17-6 17-7 59 32 58 32 10-5c5-4 9-15 9-26V20h24c13 0 52 9 86 20s66 20 70 20 10-13 14-30l6-30h355l-43 25c-23 13-62 40-86 60-47 38-143 155-128 155 5 0 22-18 37-39 15-22 53-64 84-94l57-55 52-26 51-26h94l-6 48c-3 26-9 55-12 65l-7 17h22V70l25-1c32-2 33-2 80-23 61-28 125-46 161-46h33l-21 61-20 60 6 6 6 7 178-33c255-47 262-51 181-83l-44-17h104l104-1 54 17 54 17 28-17 29-17h162v810l-37 1c-21 1-51 4-68 8l-29 6 24 15c14 9 44 24 68 34l42 19v324l-30-5c-46-7-245 33-269 54-2 2 12 20 33 40l36 35 25 49c27 54 31 75 14 86l-11 6-53-27-53-27-24 4-23 3-3 50-3 50 17 105 18 105v225l-1 225-21 167c-28 215-64 407-100 533l-29 100-45 3-46 3-46-85zM936 2404l19-15-25 12c-31 14-36 19-24 19 6 0 19-7 30-16zm49-24 6-10h-10c-5 0-13 5-16 10l-6 10h10c5 0 13-4 16-10zm209-121c66-53 51-49-36 10-40 26-92 58-115 70-24 12-43 24-43 26 0 11 148-70 194-106zm-144 25v-14h-14c-8 0-16 6-19 14l-6 15 12 4c16 6 27-1 27-19zm1016-136c-30-70-65-135-66-124 0 12 78 176 84 176 3 0-5-24-18-52zm291-30-5-13v50l5-12c2-7 2-19 0-25zm26-157c-8-11-12 10-17 74l-5 70 12-70c7-38 12-72 10-74zm-1478 59 6-10h-10c-6 0-11 5-11 10 0 6 2 10 4 10 3 0 8-4 11-10zm1230-15c-49-13-107-30-127-39l-37-16 12 33 11 32 4-17c4-21 11-22 49-6 35 14 38 15 93 26 87 19 84 10-5-13zm-1158-97c64-105 86-148 79-155-3-3-13 12-23 33-9 22-26 52-37 68-11 17-27 44-36 60-9 17-25 44-35 61-11 16-15 26-9 23 5-4 33-44 61-90zm1299 73c0-11-3-18-7-16-3 2-21-11-39-30l-33-34 39-4 39-4-55-1-54-2 54 55 55 55s1-9 1-19zM873 1880c43-39 75-70 71-70s-35 25-70 55c-34 31-75 62-91 70l-28 15h40l78-70zm-128 50-6-10h8c5 0 17-24 28-52 11-29 21-56 23-59 1-3-16-11-39-18-22-7-48-15-58-18l-16-6 10 10c6 5 29 15 52 22l42 12-5 14c-4 8-10 15-15 15s-9 8-9 18c0 9-6 29-14 44s-12 29-8 32c9 10 14 7 7-4zm258-159c23-15 49-31 57-34l15-5-16-1c-8-1-38 15-65 34-58 42-51 47 9 6zm1142-411 6-10-15 6c-18 7-21 14-7 14 6 0 13-4 16-10zm-745-70c54-27 108-76 126-114l15-31-20 25c-11 14-30 37-41 53-12 15-26 27-33 27h-10l24-27 24-28-45 41c-25 23-56 48-70 58-34 22-17 20 30-4zm-240-28c0-4-10-13-22-21l-23-14 19 22c20 22 26 25 26 13zm915-48c-17-13-38-29-47-34l-18-11 1 18c0 10 4 27 9 38l9 20v-17c1-23 7-23 38 2 37 29 43 14 8-16zm-992-28c-10-13-20-22-22-20-4 4 29 44 36 44 2 0-4-11-14-24zm153-11c-11-8-27-15-35-15h-15l20 15c10 8 26 14 34 14h15l-19-14zm290-50 13-30 1 25 1 25 11-20 12-20 1-107c0-60 1-108 1-108 1 0 26 11 55 25l54 24 90 14 90 13 77-5 77-6 23-35c13-19 43-49 67-68l44-33 30-6 30-6 31-44c17-25 34-53 38-64l8-20-30-17-29-18 21-21 21-21-6-16c-8-21-108-97-179-138-33-18-86-50-120-71l-60-38-119-6-120-6-22 11c-25 13-166 56-214 67l-33 7v16c0 8 9 25 20 37l21 22-59 6-60 5-36 17-37 18 3 16 3 16 48 25c52 28 59 40 23 40h-25l-7 11-6 11 29 40 29 41 62 22c77 28 87 36 113 94l21 46 5 71 5 71-17 54c-10 30-25 65-33 79l-14 25 17-20c9-11 23-33 31-50zm888-45 6-65-29-62-30-62-40-27c-23-15-44-24-47-21s6 13 20 22 35 32 47 51l20 34v136l-11 28c-13 35-14 34 15 28l25-4v18l1 19 8-15c5-8 11-44 15-80zm-1229 71 5-10-10-6-10-6-10 6-10 6 5 10c4 5 10 9 15 9s11-4 15-9zm822-63-4-23v90l4-22c2-13 2-33 0-45zm-977-78c4 0 23 7 43 15l35 14 6-62 7-62 19-40c10-22 33-55 51-74l32-33-23 7c-13 4-45 21-71 36l-46 29-25 38c-25 37-49 115-47 149l1 18 5-17c2-10 8-18 13-18zm1193-187c-7-2-19-2-25 0l-13 5h50l-12-5zM709 604l-11-14h11c6 0 11-4 11-10v-10h-75l14 9 14 9-7 11-7 11 23 9c13 5 27 7 31 4l8-5-12-14zm-497-59c29-13 78-29 108-34l55-9-46-1-46-1-28-22-28-21 12 21c6 12 17 22 24 23 15 1-63 38-80 39h-13v-17c0-9-2-14-4-12-5 7-17 59-12 59 2 0 28-11 58-25zm-35-67-5-13-1 19c-1 11 2 17 5 13 3-3 4-12 1-19zm2612-14c3-3-6-3-22 0-15 3-38 8-52 11s-25 9-25 14v9l47-14c25-8 49-17 52-20zm89-19c5-4-120-45-137-45h-16l29 15c15 8 40 15 55 15l26 1-20 15-20 15 40-7c22-3 41-8 43-9zM304 420c7 0 21-7 32-14l19-15-45 15c-25 9-47 18-50 21-3 4 3 3 13 0 10-4 24-7 31-7zm192-115c38-19 63-34 55-35-21 0-128 60-148 84l-18 21 21-18c11-9 52-33 90-52zm1807-15h28l-5-9-6-8-39 7-39 7-18-10-19-11 14 18 15 17 20-5c12-3 34-6 49-6zm90-17c-7-2-21-2-30 0l-18 5h60l-12-5zm162-13 50-8-90 5c-49 3-92 7-94 9-7 7 82 3 134-6zm-345-3c0-2-10-12-22-23l-23-19 19 23c18 21 26 27 26 19zM689 220l26-1-16-9c-8-5-37-11-65-13-27-2-37-2-21 0 36 6 35 20-3 28-16 4-32 10-35 15l-5 8 47-14c25-8 58-14 72-14zm784 3c-7-2-19-2-25 0l-13 5h50l-12-5zm-43-7c0-2-9-6-20-9l-20-5v9c0 5 9 9 20 9s20-2 20-4zm-309-16c10 0 19-3 19-7v-8l-88-1-87-1 55 13c30 6 61 10 68 8 8-2 22-4 33-4zm252 3c-7-2-19-2-25 0l-13 5h50l-12-5zm-78-14c-22-4-65-7-95-7l-55 1 65 7c36 4 79 7 95 7l30 1-40-9zm819-10c-8-14-84-49-104-48-8 0 8 9 35 20 28 11 54 25 60 30 12 12 18 11 9-2zm-1164-8c-8-5-48-16-89-25l-75-17H610l-15 8-14 8 107-3 107-3 70 20c39 10 77 19 85 20h15l-15-8zm1037-47c-3-3-12-4-19-1l-13 5 19 1c11 1 17-2 13-5zm-54-11c-7-2-21-2-30 0l-18 5h60l-12-5zm-87 818-6-9 16-16 15-16h50l-3 23-3 22-32 3-31 3-6-10zm32-223c-8-7-25-28-37-46l-23-32 5-13 4-12 29 42c33 48 40 51 49 23l6-20h15c18 0 18 4-1 40-17 33-24 36-47 18zm1038 2260c-58-124-144-422-132-454l5-12 19 5c26 7 68 52 136 147l56 79v267h-69l-15-32zm-1774-57-20-60 23-15 24-16 3-37 3-38h20l3 35c1 19 5 45 7 56l5 21 32 8 33 7-34 10-33 9-16 40c-8 21-18 39-23 39-4 0-16-27-27-59zM20 2770c0-13 46-86 60-95 16-10 12 0-21 54-33 52-39 59-39 41zm-20-80c0-15 91-133 97-126 6 6-63 110-84 128l-13 10v-12zm1540-113-15-32-35-17-35-16 30-7c52-12 57-14 68-45 6-17 14-30 17-30s11 20 18 44l12 45 21 6 21 7-7 6c-4 4-11 8-16 8-5 1-13 2-18 3-5 0-14 15-21 31-16 38-21 37-40-3zM0 2589c1-14 48-54 56-47 2 3-10 17-26 33l-30 29v-15zm0-367v-152l32 13 33 13 32 55 33 54v51l-42 40c-24 22-53 48-65 58l-23 19v-151zm2949-4c-56-87-122-227-153-326l-26-83v-134l24-57c24-59 162-274 190-297l16-13v486c0 267-2 486-5 486s-24-28-46-62zM0 1555v-73l63 5 62 5 25 16 25 15-13 5c-6 2-12 10-12 18v14l-37 19c-21 10-55 26-75 34l-38 16v-74zM0 70V0l238 1h237L365 42C263 79 46 140 14 140H0V70zM548 3c6-2 18-2 25 0l12 5h-50l13-5z"/></g><g fill="#81de80" transform="matrix(.1 0 0 -.1 0 300)"><path d="M700 2974c-60-43-100-78-100-90 0-6 11-17 25-24s23-15 21-18c-3-2-21 6-41 18-44 27-58 20-17-9 44-31 232-120 269-127l32-6 7 26 6 26-43 115-44 115-40-1-40-1-35-24zm45-174 6-10-15 6c-18 7-21 14-7 14 6 0 13-4 16-10zm40-20 6-10-15 6c-18 7-21 14-7 14 6 0 13-4 16-10zm102-36c-3-3-12-4-19-1l-13 5 19 1c11 1 17-2 13-5zm573 250c0-12 85-144 92-144 13 0 10 9-32 81-35 59-60 85-60 63zm40 1c0-3 10-25 22-48l22-42 6 35 6 35 8-57 7-58h10c11 0 11 16 3 88l-7 52h-38c-22 0-39-2-39-5zm297-2c-3-5-8-31-12-60l-7-51 22-12 22-12 16 7c34 12 182 110 186 122l5 13h-228l-4-7zm630-15c-8-13-33-57-57-98-59-103-88-137-295-350-99-102-236-251-305-330-149-173-223-250-238-250h-12v33c0 17 5 52 11 76 5 24 8 46 5 48-9 9-46-18-60-45l-14-27-7 30c-27 117-45 179-55 189l-11 11-10-15c-5-8-27-43-48-78l-39-63-7 11c-3 5-13 10-22 10s-31 11-48 24c-18 14-70 44-116 67-96 49-129 72-146 102-16 29-16 35 3 39l17 3-54 28c-30 16-80 42-113 58-32 17-56 32-53 35 7 7 175-68 267-120 45-25 86-46 90-46s36-21 71-47l64-46-19 22c-46 51-203 142-429 246-87 41-211 104-275 141l-117 68-62 53c-65 55-87 64-97 37-9-25-7-503 4-666 25-394 102-695 211-827 15-19 26-38 24-42-3-3-26-10-52-13-27-4-56-9-65-12l-18-5v-14c0-7 26-37 58-66l57-52-96 6-96 5-43 22c-23 12-44 19-47 16-3-2 6-18 18-36l23-31 69-34 69-35 49-6c27-4 49-10 49-14 0-8-68-39-135-61l-40-13-90-1h-90l-48 19-48 18-7-7-7-7 19-14 20-14H0V729l15-23c23-35 153-138 200-159 22-10 69-24 105-31l65-14-15-6c-8-3-37-7-65-8l-50-3-3-23-3-22 13-4c7-2 25-7 39-10 15-3 54-26 87-51s82-55 109-67c26-11 57-31 68-43l21-22 63-12 64-12-9-9c-5-5-43-15-84-23l-75-13 25-15 25-14 115 1 115 1 90 28 90 28 145-1 145-2 90 19 90 19 17-21 17-22 7 7 7 8-13 15c-14 17-10 28 5 17 6-4 30-33 53-64 52-68 108-116 179-152l52-26h83l-6 38c-4 20-9 49-12 64l-6 28h122l67 27 68 27 60 59 60 58 130-15c72-8 162-18 200-21l70-6 83 10 83 11 100 46 99 47v397l-47 1c-27 0-66 7-88 15l-40 14 45-5c25-2 64-7 88-11l42-7v21l-37 6c-21 4-51 9-66 12l-28 6 15 16c8 10 37 26 65 37l51 19v316h-113l-86 20c-47 11-93 25-101 30l-15 10 33 26 33 26 29 52 30 51v55h-11c-6 0-24-10-41-21l-30-22-43-5-44-4-7 28-7 28 18 106 18 105 4 204 5 203-11 127c-24 257-60 468-112 659l-31 112h-78l-13-22zM610 2562c30-18 50-32 45-32-6 0-19 6-30 14-11 7-37 21-58 29l-38 16 7-12c4-7 16-23 28-37l21-25-38 35c-22 19-53 53-70 74l-31 39 55-35c30-20 79-49 109-66zm126-70c-5-4-66 26-66 33 0 3 16-3 35-12s33-18 31-21zm-108-23c32-39 23-37-19 7l-34 35 15-6c8-4 25-20 38-36zm186-249c57-80 109-156 116-170l12-25-9 10c-6 6-48 64-93 130-46 66-108 154-137 195l-54 75 31-35c17-19 78-100 134-180zm1425 186c-2-2-15-9-29-16l-25-13 14 16c7 10 20 17 29 17 8 0 13-2 11-4zm-141-183c-3-11 60-143 69-143 11 0 167 93 175 104l7 10 5-14c3-8 13-60 22-115s18-103 21-107c2-5-1-8-7-8s-32-15-58-32l-47-33-58 3-57 4 51 56 52 57 26 6 26 7-56 1-56 1-79-20c-43-11-96-27-117-37-20-9-40-14-43-11-10 11 106 278 121 278 3 0 4-3 3-7zm-1028-28 12-15h-32v15c0 8 2 15 4 15s9-7 16-15zm-388-35c-9-21-18-35-20-30-3 9 25 70 33 70 2 0-4-18-13-40zm206-115c50-61 134-196 170-272l20-43h-47l-73 60c-40 33-97 80-126 105-30 25-58 45-63 45h-9l6-27c3-16 14-46 25-67 10-22 17-41 16-42-1-2-38-14-81-28l-79-25 46 47 47 47-20 33-20 32h-26l-23 44-22 45 7 25 6 26 35 30 35 31 64-3 64-3 48-60zm622 16c-5-11-15-23-22-27l-11-7 8 14c21 37 44 55 25 20zm-19-113-9-33-1 25c0 14 2 36 6 50l7 25 4-17c2-9-1-31-7-50zm-472-42c-3-3-11 5-18 17l-13 22 18-17c10-10 16-20 13-22zm548 28c-3-3-12-4-19-1l-13 5 19 1c11 1 17-2 13-5zm-487-125c0-18-10-8-25 24l-16 32 21-24c11-13 20-27 20-32zm-461-73c-2-2-15-9-29-16l-25-13 14 16c7 10 20 17 29 17 8 0 13-2 11-4zm1351-60c0-2-8-10-17-17l-18-14 14 18c13 16 21 21 21 13zm-1-61c-12-19-23-35-25-35-6 0 14 40 29 58 18 23 16 12-4-23zm-1249-30 45-15-39 4c-22 3-44 10-50 16-13 13-10 13 44-5zm1595-27c16-24 22-38 14-31-15 12-53 73-46 73 2 0 17-19 32-42zm-1487 5c-10-2-28-2-40 0l-23 4h40l40 1-17-5zm122-16c0-2-12-14-27-28l-28-24 24 28c23 25 31 32 31 24zm1447-56 12-19 36-12c20-7 34-14 32-16-6-7-87 27-87 36 0 4-10 12-22 18l-23 11h20l20 1 12-19zm-1533-51c-41-56-71-82-34-29 24 35 61 79 67 79 2 0-13-22-33-50zm1906-32c-25-49-56-85-85-100l-20-10 41 40c23 22 44 50 47 61l5 22-21-7-22-6 35 24c19 14 36 24 38 22 2-1-6-22-18-46zm-595 22 6-10-28 1h-28l20 9c11 5 21 9 22 9 1 1 5-3 8-9zm410-16 60-14-47 5c-26 2-62 11-80 20-18 8-24 13-13 9 11-3 47-12 80-20zm-352 9c-7-2-19-2-25 0l-13 5h50l-12-5zm69-25c13-13 17-18 8-11-8 7-27 16-40 22l-25 10h17l17 1 23-22zm-242-12c0-2-8-10-17-17l-18-14 14 18c13 16 21 21 21 13zm206-37c17-11 50-39 72-63l41-44 20-67 21-67V999l-29-57-29-57-43-27c-24-16-49-28-56-28s-22-5-32-12l-19-11 35-53 35-52-4-18-3-18-22-11-22-11 21-22 22-21-13-23-12-23-72-52c-40-28-103-68-142-88-38-21-76-43-83-50l-13-12 53 8c29 4 73 10 98 13l45 5-55-14-55-15-235-20-235-20-125-24c-69-13-143-26-165-30l-40-6 50 15c28 8 109 24 180 35 72 12 139 25 150 29l20 8-85 26c-47 14-104 31-127 37l-43 11v13c0 7 9 21 20 31s20 22 20 27v8h-105l-39 23c-22 12-41 27-43 33l-4 11 56 29c30 16 55 32 55 36s-6 5-13 2l-13-4-19 13-19 14 38 52 38 51h22c12 0 47 12 76 28l54 27 22 70 23 70 1 41c1 124-80 256-195 317l-30 16 18 1c10 0 39-11 65-24l47-24 46-49c48-51 60-76 79-163l12-56-3-52c-4-52-1-60 17-43 5 5 39 18 75 30l65 21 66 7 65 6 76-7 75-8 12-28 12-28 36-29c43-35 76-53 93-53h13l-17 13-17 12 47-3 48-4 34 24c19 13 43 35 54 50l20 27 5 50 4 50-17 70-17 71-31 46-30 46-41 30c-23 17-52 34-66 39s-32 12-40 16l-15 6 25 8 25 7 40-5c22-3 54-14 71-24zm-1463 1c-5-19-23-29-23-12 0 7 20 32 26 32 1 0 0-9-3-20zm574 12 11-7h-177l17 7c23 9 134 9 149 0zm93-42c14-10 38-33 55-52l30-33-35 32c-19 17-55 43-80 58l-45 26 25-7c14-3 36-15 50-24zm-344-15c-20-14-40-25-43-25-4 0 8 11 27 25s38 25 43 25c6 0-7-11-27-25zm-387 1c-2-2-17-6-32-10l-29-7 7 11 6 10h26c15 0 24-2 22-4zm1252-19-12-12 7 18c3 10 9 15 12 12s0-11-7-18zm669 9c0-2-7-7-16-10l-15-6 6 10c6 10 25 14 25 6zm-2015-26c-3-5-12-10-18-10h-12l15 10c19 12 23 12 15 0zm499-75-26-80 1-94v-95l28-55 28-56 50-34 50-34-35 7-34 6-68 41-68 41-21 34c-11 19-26 58-33 87l-12 52 12 47c6 26 21 67 33 92l22 44 45 42c25 23 47 40 49 38s-7-40-21-83zm-574 46c-8-5-48-14-88-21l-72-13 22-24c12-13 43-37 70-54 50-32 64-48 26-28-30 15-147 102-148 109 0 6 150 37 185 39h20l-15-8zm470-21c-12-16-24-30-26-30-3 0 4 14 16 30 12 17 24 30 26 30 3 0-4-13-16-30zm1070 22c0-5-12-15-26-22-14-8-30-22-35-32l-10-19-10 6-9 6-1-33c-3-73-3-85 4-130l7-48h-18l-8 66-7 66 7 60c3 33 9 64 12 70l7 10 7-12 8-13 23 17c25 17 49 21 49 8zm568-9c-10-2-28-2-40 0l-23 4h40l40 1-17-5zm-1423-52c-2-5-18-14-35-21-16-7-30-16-30-21s-9-9-20-9h-20v30h15c8 0 29 9 47 19 30 19 54 19 43 2zm1562 13c-3-3-12-4-19-1l-13 5 19 1c11 1 17-2 13-5zm60-10c-3-3-12-4-19-1l-13 5 19 1c11 1 17-2 13-5zm-430-61-5-18v70l5-17c2-10 2-26 0-35zm-1462-18-14-50v21c-1 21 19 88 24 82 2-2-3-25-10-53zm612-7-5-13-1 19c-1 11 2 17 5 13 3-3 4-12 1-19zm-1002-28 6-10-15 6c-18 7-21 14-7 14 6 0 13-4 16-10zm394-80v-15l-9 20c-5 11-9 25-9 30l-1 10 10-15c5-8 9-22 9-30zm1347-7c-8-57-26-88-68-109l-31-16-46 5c-83 10-104 21-135 69l-18 28 6 16 6 16 21-26c11-15 34-33 51-42l30-15 31 11c17 6 41 20 54 32s23 19 23 15c0-3 12 6 28 20 15 14 26 29 25 34l-3 9h33l-7-47zm-1742 22c-10-8-23-14-29-14-5 0-1 6 9 14 11 8 24 15 30 15 5 0 1-7-10-15zm-44-20c0-6-76-45-87-45-4 1 12 12 37 25 50 27 50 27 50 20zm2410-20c0-3-21-29-47-56-52-56-90-80-125-78l-23 1 38 10 39 10 56 58c62 62 62 63 62 55zm-1455-25 7-11-18-56-18-56-50-23-51-24-60 6-60 6-25 16c-29 18-44 35-65 75l-16 27h39l5-19 5-20 33-20 34-21h51l46 29c25 16 49 34 53 40l7 12 19-6 19-6 5 15c3 9 7 23 10 31 5 17 21 20 30 5zM435 930c-3-5-12-10-18-10h-12l15 10c19 12 23 12 15 0zm1966-28c-5-9-19-26-32-37l-23-20 30 37c32 41 40 48 25 20zm-2034 2c-3-3-12-4-19-1l-13 5 19 1c11 1 17-2 13-5zm-194-21c-7-2-21-2-30 0l-18 5h60l-12-5zm50 0c-7-2-19-2-25 0l-13 5h50l-12-5zm60 0c-7-2-21-2-30 0l-18 5h60l-12-5zm-80-270 62-25 85-8 85-9-91 3-91 3-75 36-74 36-19 23-20 22 38-28c21-15 66-39 100-53zm582 27c-3-5-12-10-18-10h-12l15 10c19 12 23 12 15 0zm-47-25c29-34 28-42-10-54l-33-10-40 7-40 7v29l34 23c19 13 41 23 51 23h16l22-25zm-159-11c-27-30-79-64-124-82l-30-12 19 13c10 6 48 33 84 60 76 54 85 58 51 21zm-99-14c-8-5-22-10-30-10h-15l15 10c8 5 22 10 30 10h15l-15-10zm2355 0c-11-5-24-9-30-9l-10-1 15 10c8 5 22 9 30 9h15l-20-9zm55-19c-19-10-46-21-60-25l-25-6 50 24c58 28 87 34 35 7zm-182-18c-10-2-28-2-40 0l-23 4h40l40 1-17-5zm77-79 100-32-40-17c-44-19-255-65-295-64l-25 1 40 9c22 4 64 14 93 20l52 12 13 15 12 15-60 54-60 55 35-18c19-10 80-32 135-50zm8 59c-24-9-13-22 28-33 23-6 39-14 36-17s-21 0-39 5c-18 6-53 17-78 24l-45 12 45 7c59 8 68 8 53 2zM424 491c7-11 134-31 221-34l70-3-85-2-85-2-78 15c-43 8-82 15-85 15-9 0 21 20 30 20 4 0 9-4 12-9zm301-122c-22-22-49-45-60-51s5 12 35 40c66 62 79 68 25 11zm1442 15c-3-3-12-4-19-1l-13 5 19 1c11 1 17-2 13-5zm122-8c3-2 51-7 106-10 55-4 102-10 105-13 9-10-203 8-265 22l-60 14 54-5c29-2 56-6 60-8zm-1080 0c-10-9-69-36-69-32 0 7 52 35 64 36 5 0 7-2 5-4zm1508-22c-3-3-12-4-19-1l-13 5 19 1c11 1 17-2 13-5zm-1631-36c-28-16-187-58-216-57l-25 1 60 13c33 8 87 23 120 33 69 23 88 26 61 10zm-452-32-6-14 54-6c29-3 71-8 93-10s-7-2-64 0-107 7-110 10 3 12 13 20c25 17 27 17 20 0zm572-25-6-9 12-5 13-5-17-1c-18-1-24 10-11 22 9 10 15 8 9-2zm644 659c0-6 12-15 26-20 26-10 44-6 44 9v8l-25-5-25-4v11c0 6-4 11-10 11-5 0-10-5-10-10zm0-252c-17-22-28-44-24-47 3-3 9 1 14 10s18 27 29 40l21 24 20-25 20-25v13c0 7-5 22-10 33l-11 19h-29l-30-42zm920-223c7-8 20-15 29-15l16 1-19 14c-11 8-24 15-29 15h-9l12-15zm127 2463c-19-51-49-138-67-193l-32-100-5-55-5-55 20 31c20 31 42 51 42 39 0-3-9-15-20-27s-20-26-20-30v-9l13 8c22 13 70 72 126 152l51 75v256h-67l-36-92zm-1747 11c-6-22-14-47-17-54l-5-15 28-10 28-11 11 13c5 8 26 19 45 25l35 11-31 1-32 1-10 13c-6 6-13 24-17 40-10 38-22 34-35-14zm21-111c1-7 5-24 9-38l8-25 1 38 1 37h-10c-5 0-10-6-9-12zM50 2720c6-11 13-20 16-20 2 0 0 9-6 20s-13 20-16 20c-2 0 0-9 6-20zm-50-27c0-8 79-113 86-113 3 0-14 27-37 60-41 58-49 67-49 53zm1543-123-11-29-33-15-34-14 28-1 27-1 20-20c11-11 20-27 20-35s5-15 10-15h10v59l26 20 27 21h-41l-12 30c-16 38-23 38-37 0zM4 2581c7-11 46-35 46-28 0 3-12 12-26 22l-26 17 6-11zm26-261c0-5 5-10 11-10h10l-6 10c-3 6-8 10-11 10-2 0-4-4-4-10zm-27-30v-30h17l-2 30c-1 17-5 30-8 30-4 0-7-13-7-30zm34 3c-4-3-7-12-7-20v-13h15c17 0 19 9 7 28l-8 12-7-7zm33-11c6-13 14-21 18-18 3 4-2 14-12 24l-18 17 12-23zm2887-59c-87-131-172-340-183-451l-7-60 18-57 19-58 47-78c26-43 70-108 98-145l51-67-1 319c-1 175-3 311-6 302l-4-18h-14c-7 0-16 7-19 16l-6 17 15 23c9 13 20 24 25 24h10v234l-14-14c-8-8-35-53-60-100s-46-80-46-75c0 6 27 59 60 119 67 120 76 159 17 69zm-92-242c-8-17-13-31-9-31s1-6-6-14c-6-8-18-39-26-68l-14-53v-60c0-33 4-76 10-94 13-47 4-52-15-8l-15 36v40c0 22 5 64 11 93 12 57 68 202 76 194 2-2-3-18-12-35zM90 2245l-12-15h32v15c0 8-2 15-4 15s-9-7-16-15zm-55-5-6-10h10c6 0 11 5 11 10 0 6-2 10-4 10-3 0-8-4-11-10zm31-33-18-13 18-15 18-14-8 14-9 13 14 9c7 4 11 10 8 13s-13 0-23-7zm-63-12v-14l9 5c4 3 8 9 8 15 0 5-4 9-8 9-5 0-9-7-9-15zm1257 13c0-4 9-21 19-39l19-31 7 12 7 12-26 26c-14 15-26 23-26 20zM35 2170l-6-10h10c6 0 11 5 11 10 0 6-2 10-4 10-3 0-8-4-11-10zm15-30c0-5 5-10 10-10 6 0 10 5 10 10 0 6-4 10-10 10-5 0-10-4-10-10zM0 1611v-11l40-16c23-9 39-18 37-20-2-3-20 3-40 11l-37 15v-69l38-4 37-4-37-1-38-2v-23l72 6 71 6 11 11 10 10-39 1-40 1 18 5 17 5-5 8-5 8 22-6 21-5-7 12c-8 12-86 54-123 65l-23 7v-10zM0 435V234l111 37 111 36 8 14c11 17 3 30-14 23l-14-5-62 106c-35 58-80 125-101 148L1 635 0 435zm134 118c7-47 24-98 31-91 6 5-21 117-30 126l-8 7 7-42zM0 70V0h232c127 0 229 2 227 4-11 9-283 96-344 110-38 9-80 18-92 21l-23 5V70zm2933 23c-64-51-74-63-67-75 3-4 0-8-5-8h-11v44l-17-17-18-18 15-9 15-10h155l-1 70c-1 39-3 70-5 70s-29-21-61-47z"/></g><g fill="#d78173" transform="matrix(.1 0 0 -.1 0 300)"><path d="M800 2991c0-14 82-225 91-236l9-9v12c0 21-85 242-92 242-5 0-8-4-8-9zm660 5c0-11 73-126 87-138l16-13-4 10c-23 57-99 164-99 141zm105-63c4-38 9-70 11-72 11-12 14 13 8 73l-7 66h-19l7-67zm232 60c-3-5-8-31-12-60l-7-51 22-12 22-12 16 7c34 12 182 110 186 122l5 13h-228l-4-7zm636-5c-6-7-29-48-52-90-58-107-97-154-305-368-99-102-248-265-333-362-146-168-195-218-214-218h-9v33c0 17 5 52 11 76 5 24 8 46 5 48-8 9-37-13-56-42l-19-29-6 30c-22 94-49 185-57 190l-9 6-15-18c-8-11-32-54-53-96l-39-77-13-54-12-55 9-38 8-39 7 72 7 71 26 54c14 29 24 44 21 32l-5-20 38-75c20-41 43-90 50-109l14-35 18 50c10 28 19 61 19 75l1 25 26 30 25 30-12-25-13-25 2-32c2-17-2-52-8-78-13-58-5-70 14-23l15 35 32 7 31 6 67-10 66-11 90-43c50-24 106-46 125-50s77-27 127-51l92-45 65-60c35-33 81-85 101-115l38-55h38l5-14 6-14 61-25c34-13 86-30 116-37l53-13 49 6 50 6 29 21 30 21v-11c0-22-39-86-72-116-18-17-62-47-98-67-63-34-108-72-98-82 2-2 30 12 62 32l58 36 86-27c92-28 231-49 257-40 8 4 15 11 15 16v10l-12-4c-23-9-159 11-234 33l-74 22 44 43c50 47 86 110 86 149 0 31-1 31-55-1l-44-25-38 3-38 3-3 36-3 37 16 88 17 89 5 208 5 207-11 128c-24 258-59 466-113 660l-30 112h-76l-9-12zm-194-582c-2-2-15-9-29-16l-25-13 14 16c7 10 20 17 29 17 8 0 13-2 11-4zm-146-101c-3-9-8-14-10-11-3 3-2 9 2 15 9 16 15 13 8-4zm5-82c-3-11 60-143 69-143 11 0 167 93 175 104l7 10 5-14c3-8 13-60 22-115s18-103 21-107c2-5-1-8-7-8-7 0-31-14-54-31l-43-30-66-2c-37-1-67-2-67-1 0 0 26 28 58 61l57 61 25 5 25 4-56 2-55 1-85-21c-46-12-101-30-121-40-21-11-39-19-42-19-7 0 32 98 79 198 24 50 46 92 49 92s5-3 4-7zm322-383c-8-5-19-10-23-10h-8l6 10c3 6 14 10 23 10h17l-15-10zm488 1092c-14-37-45-122-67-189l-41-122-5-58-5-58 29 110c24 89 85 267 126 368l7 17h-9c-5 0-21-30-35-68zm-1757-18c-6-21-9-40-6-42 2-2 8 13 14 34s9 40 6 42c-2 2-8-13-14-34zm29-1c0-7 9-21 21-31l20-20 22 7 22 6-27 3-28 3-15 22-15 21v-11zm-595-59c34-26 238-123 274-130l34-7-7 11c-4 7-15 12-24 12s-77 29-151 65c-136 66-161 76-126 49zm-339-60c-9-24-7-478 4-654 23-396 101-706 211-839 15-19 26-38 24-42-3-3-26-10-52-13-27-4-56-9-65-12l-18-5v-27l58-52 57-52-96 5-96 5-43 22c-23 12-44 19-47 16-3-2 6-18 18-36l23-31 69-34 69-35 49-6c27-4 49-10 49-14 0-8-38-26-110-52l-55-19-80-6-80-5-62 21C2 953 0 953 0 941c0-5 21-18 48-28l47-18h210l70 24c39 13 103 41 143 62l74 39h58v10c0 6-6 10-13 10-20 0-166 89-220 135l-48 40 113 22 113 23 68 31 68 31 62-6 62-5-35 11c-19 6-37 13-39 15-2 1 13 29 34 60l38 58 92 90c50 50 108 104 128 121 21 17 37 36 37 41v10l-39 7-39 6-55 42c-30 24-87 71-126 106-39 34-76 62-82 62h-10l5-17c2-10 8-29 12-43 3-14 15-37 26-52l19-27-28-7c-15-3-39-10-53-15s-41-14-60-19l-34-10 47 48 47 47-20 33-20 32h-26l-23 44-22 45 7 25 6 26 34 30 35 30h90l21-11 20-11-7 14c-14 26 65-68 99-117 18-27 58-92 87-144l54-95 3 18 4 18-68 112c-150 247-359 533-499 684-48 50-84 92-81 92s34-18 68-41c35-22 124-70 198-105s206-100 293-144c86-45 157-79 157-76 0 10-149 92-295 161-285 136-423 215-517 296-31 27-63 49-71 49h-15l-6-16zm436-634c-9-21-18-35-20-30-3 9 25 70 33 70 2 0-4-18-13-40zm-63-424c-2-2-15-9-29-16l-25-13 14 16c7 10 20 17 29 17 8 0 13-2 11-4zm256-67c-8-23-15-57-15-77v-35l-72 5-73 5-30 16c-16 9-43 28-60 42l-30 27 32-21c40-27 42-26 77 9 15 16 47 38 70 49l41 20 37 1h37l-14-41zm22-95c-3-3-12-4-19-1l-13 5 19 1c11 1 17-2 13-5zm281 1206c2-16 6-30 8-30s4 14 4 30v30h-17l5-30zm1772-80c-23-33-61-85-86-115-51-63-57-82-13-39 36 35 153 203 146 210-3 3-24-22-47-56zM0 2695c0-9 80-115 87-115 4 0-59 91-79 115l-8 9v-9zm1543-125-11-29-33-15-34-14 28-1 27-1 20-20c11-11 20-27 20-35s5-15 10-15h10v59l26 20 27 21h-41l-12 30c-16 38-23 38-37 0zM4 2581c7-11 46-35 46-28 0 3-12 12-26 22l-26 17 6-11zm26-261c0-5 5-10 11-10h10l-6 10c-3 6-8 10-11 10-2 0-4-4-4-10zm-27-30v-30h17l-2 30c-1 17-5 30-8 30-4 0-7-13-7-30zm34 3c-4-3-7-12-7-20v-13h15c17 0 19 9 7 28l-8 12-7-7zm33-11c6-13 14-21 18-18 3 4-2 14-12 24l-18 17 12-23zm1090 15c0-3 17-17 37-33 20-15 33-23 29-16-8 13-66 56-66 49zm1797-73c-87-133-172-341-183-452l-7-60 18-57 19-58 47-78c26-43 70-108 98-145l51-67-1 294-1 294-13-65-14-65 6-23 5-22-17-26-17-26-51-24c-29-13-60-24-69-24h-17l-12 43-11 42 6 68 6 68 24 67c33 94 86 205 135 286 51 85 50 108-2 30zM90 2245l-12-15h32v15c0 8-2 15-4 15s-9-7-16-15zm-55-5-6-10h10c6 0 11 5 11 10 0 6-2 10-4 10-3 0-8-4-11-10zm31-33-18-13 18-15 18-14-8 14-9 13 14 9c7 4 11 10 8 13s-13 0-23-7zm-63-12v-14l9 5c4 3 8 9 8 15 0 5-4 9-8 9-5 0-9-7-9-15zm1257 9c0-14 41-57 48-49 3 3-6 18-21 33l-27 27v-11zM35 2170l-6-10h10c6 0 11 5 11 10 0 6-2 10-4 10-3 0-8-4-11-10zm15-30c0-5 5-10 10-10 6 0 10 5 10 10 0 6-4 10-10 10-5 0-10-4-10-10zm1907-488c-14-15-35-47-46-72l-21-45v-80l10 15c5 8 10 24 10 36 0 11 14 49 31 82l31 62h14c15 0 19 16 6 24l-9 5-26-27zm32-110c-4-98 2-128 15-79 8 32 6 138-4 162l-8 20-3-103zM0 1612c0-7 65-39 143-71l10-4-7 12c-8 12-86 54-123 65l-23 7v-9zm1466-34c-8-13-19-43-25-67l-10-45 14-32 13-32 22-7c12-4 24-5 27-2 2 3-5 8-16 12l-21 6-6 25c-8 33 1 113 14 126l11 11 15-12c17-14 46-94 47-130v-26l8 20 8 20-9 38c-12 53-34 94-58 107l-19 10-15-22zM58 1513l-58-4v-22l65 6c36 4 73 11 83 16l17 10-25-1c-14-1-51-3-82-5zm2044-110c-18-9-48-33-66-55l-33-39-18-54-17-55 7-61c4-33 10-73 14-87l8-27 5 96 5 95 11 20 11 19 1-18c0-10 3-17 8-15 4 2 19 10 35 17l27 14 7-7 8-8-19-10c-10-5-27-21-38-34l-21-23-9 5-9 6 4-126 4-126 14-17c20-25 49-50 87-74 50-32 48-17-4 22-25 18-54 48-65 65l-19 31v53h31l-5-9-6-9 25-30 26-31 29-6 29-6 31 16c17 9 39 28 48 43l17 27h40l-3 29-4 29 17-7c9-3 19-6 21-6s4-22 4-49v-48l-23-34-22-34-35-18-35-18-40 5-40 5 19-11 18-10 40 5 39 5 33 26 33 25 18 37 18 37-6 56c-4 31-13 80-20 108l-14 53-29 41c-16 24-49 57-74 75l-45 34-32 6c-18 3-33 10-33 14s15 10 33 14l32 5 37-8c44-10 83-37 131-90l36-40 20-66c12-37 21-81 22-99v-31l9 22 9 22-3 63-2 64-29 53-29 53-44 39-45 39-36 10c-20 5-54 10-76 10h-40l-33-17zm213-284c-4-6-9-8-12-5s-21-1-41-10c-19-8-37-12-40-9-3 2 6 8 19 13s31 12 39 15 21 6 28 6l13 1-6-11zm-130-39c-3-5-14-10-23-9h-17l20 9c27 11 27 11 20 0zm-115-40c-8-5-19-10-23-10h-8l6 10c3 6 14 10 23 10h17l-15-10zm-845 307c-64-22-118-53-152-89-38-40-80-118-89-165l-7-35 12-54c7-30 16-54 20-54h8l-6 33-7 32 12 47c7 27 22 68 34 92l21 44 45 42c25 23 47 40 49 38s-7-40-21-83l-26-80v-71c0-39 3-89 7-112l6-40 28-44 28-43 44-23c24-12 36-17 25-10-67 46-104 97-110 152-1 12-5 27-9 33l-7 11 31 6c18 3 36 6 41 6h9l-6-10c-3-5-15-10-26-10h-19v-10c0-5 6-10 13-10h12l-15-10-15-10h45v-38l31-26 31-26h54l45 28c24 16 50 36 58 45l14 17 13-11 14-11v54l20 5 20 5v14c0 8 5 14 11 14h11l-7-47c-4-27-15-66-24-88l-18-40-49-22c-27-12-58-25-69-29l-20-8 23-4 24-4 54 27 54 26v12c0 6 10 31 22 55l21 45v71l-1 71-17 50c-10 28-31 70-47 93l-30 44-61 39-60 39h17c9 0 38-11 64-24l47-24 46-49c44-47 57-72 76-143l10-35 7 51 8 52-22 41c-11 23-39 59-61 80l-39 39-48 22-47 22-55 4-55 4-40-13zm30-166c-2-5-18-14-35-21-16-7-30-16-30-21s-9-9-20-9h-20v30h15c8 0 29 9 47 19 30 19 54 19 43 2zm255-115c0-7-101-38-106-33-3 3 14 12 38 20 44 16 68 20 68 13zm-20-70c0-2-11-3-24-2l-23 1 4 12 5 13 19-11c10-5 19-11 19-13zm1490-6-13-30-60-60-59-60-41-11-41-11-43 7-43 6v-21h145l78-15c92-18 97-18 97-6v9l-42 7c-24 3-56 9-72 12l-29 5 24 19c13 10 45 26 72 36l47 17v63c0 35-2 63-4 63s-9-14-16-30zm-594-59-26-51-53-30c-28-16-46-30-39-30 39 0 122 72 142 124 18 49 3 41-24-13zm82 0c-33-29-35-47-4-35l16 6-5 8-5 8 27 21 28 20-12 1c-7 0-27-13-45-29zm-618-11c0-6 12-15 26-20 26-10 44-6 44 9v8l-25-5-25-4v11c0 6-4 11-10 11-5 0-10-5-10-10zm-720-130c25-16 50-30 55-30 6 0-10 14-35 30s-49 30-55 30c-5 0 10-14 35-30zM0 745v-17l31-36c43-49 126-115 175-140l41-21 67-12 66-13-7-7c-5-4-33-9-63-11l-55-3-3-23-3-22 13-4c7-2 25-7 39-10 15-3 54-26 87-51s82-55 109-67c26-11 57-31 68-43l21-22 63-12 64-12-9-9c-5-5-43-15-84-23l-75-13 25-15 25-14 115 1 115 1 90 28 90 28 145-1 145-2 90 19 90 19 17-21 17-22 7 7 7 8-13 15c-14 17-10 28 5 17 6-4 30-34 55-66l45-59 50-37c27-21 69-47 92-59l42-21h83l-6 37c-4 21-9 50-12 64l-5 26 73 5 73 5 66 31 66 31 48 52 48 51 131-16c72-8 163-18 201-21l70-6 83 10 83 11 100 46 99 47v49l-17-5c-120-39-259-77-271-75-8 2-17 8-19 13l-3 11 27 2c16 1 57 12 93 23l65 21 24 23 24 23-44 12c-24 6-75 21-114 32l-70 21 50 9 50 9 84 40c91 42 121 64 121 86v14l-34-26c-39-30-169-86-237-103l-46-12-31 10-32 9v-9c0-15 98-58 186-81l86-23-29-15c-15-8-80-27-143-43l-115-28-116-7-116-6-102 17-102 17-62-15c-70-17-103-21-312-37-152-11-306-33-481-69-53-11-104-20-114-20h-17l32 68c18 37 30 68 26 70-4 1-42-14-86-34-43-20-114-47-159-62l-81-25-152-1-151-1-8 7-7 7 97 92c53 50 96 95 96 101v10l-17-7c-10-4-47-11-83-16l-65-10-81 11c-44 6-100 16-125 23l-44 13 60 36c62 38 182 128 171 128-4 0-42-18-85-41l-79-41H285l-58 20c-33 12-81 36-109 53l-49 32-35 45-34 45v-18zm1850-77c-17-22-28-44-24-47 3-3 9 1 14 10s18 27 29 40l21 24 20-25 20-25v13c0 7-5 22-10 33l-11 19h-29l-30-42zM0 620c0-8 12-28 28-44l27-31-27 24-28 24v-20c0-11 7-34 15-49l15-29v-95H0V231l58 23c31 13 81 29 110 36l52 12 10 18 10 19-9 6-10 5-7-11-6-11-24 38c-12 22-33 57-45 79-33 60-94 148-118 169L0 633v-13zm134-67c7-47 24-98 31-91 6 5-21 117-30 126l-8 7 7-42zM0 70V0h227c124 0 224 2 222 4-9 10-277 97-339 111-36 8-75 17-87 20l-23 5V70zm2831-34-15-18 15-9c8-5 21-9 29-9h15l-11 8c-7 4-13 16-15 26l-4 19-14-17z"/></g><g fill="#4a8a5c" transform="matrix(.1 0 0 -.1 0 300)"><path d="M800 2991c0-14 82-225 91-236l9-9v12c0 21-85 242-92 242-5 0-8-4-8-9zm660 5c0-11 73-126 87-138l16-13-4 10c-23 57-99 164-99 141zm105-63c4-38 9-70 11-72 11-12 14 13 8 73l-7 66h-19l7-67zm834-5c-22-40-57-98-78-127l-36-55-194-200c-107-111-263-281-348-378-146-168-195-218-214-218h-9v38c0 20 5 55 10 77s7 42 4 45-21-12-40-33l-35-37-3 12c-3 7-11 45-19 83-9 39-20 83-26 99l-12 29-20-18c-11-10-37-54-58-96l-39-78-13-54-12-55 9-38 8-39 7 72 7 71 26 54c14 29 24 44 21 32l-5-20 38-75c20-41 43-90 50-109l14-35 18 50c10 28 19 62 19 77l1 27 26 28 25 28-12-25-13-25 2-32c2-17-2-52-8-78-13-58-5-70 14-23l15 35 32 7 31 6 67-10 66-11 90-43c50-24 106-46 125-50s77-27 127-51l92-45 65-60c35-33 81-85 101-115l38-55h38l5-14 6-14 61-25c34-13 86-30 116-37l53-13 49 6 50 6 29 21 30 21v-11c0-22-39-86-72-116-18-17-62-47-98-67-63-34-108-72-98-82 2-2 30 12 62 32l58 36 86-27c92-28 231-49 257-40 8 4 15 11 15 16v10l-12-4c-23-9-159 11-234 33l-74 22 44 43c50 47 86 110 86 149 0 31-1 31-55-1l-44-25-38 3-38 3-3 41-3 42 16 88 16 89 6 191 6 191-12 129c-25 268-63 498-113 682l-31 112h-76l-42-72zm-128-241-12-12 7 18c3 10 9 15 12 12s0-11-7-18zm-6-300c8-13 32-64 54-113l38-89 17-105 18-105 40-42 41-42-29-7c-16-5-47-8-69-8-44 0-215 8-215 10 0 1 23 25 50 53 75 77 68 88-42 67-63-12-113-28-190-61l-17-7 30 79c53 139 156 329 205 377 8 9 24 16 34 16h20l15-23zm-172-82c-3-9-8-14-10-11-3 3-2 9 2 15 9 16 15 13 8-4zm333-460c-20-15-36-19-36-10 0 5 38 23 50 24 3 0-4-6-14-14zm482 1087c-14-37-45-122-67-189l-41-122-5-58-5-58 29 110c24 89 85 267 126 368l7 17h-9c-5 0-21-30-35-68zm-1757-18c-6-21-9-40-6-42 2-2 8 13 14 34s9 40 6 42c-2 2-8-13-14-34zm29-1c0-7 9-21 21-31l20-20 22 7 22 6-27 3-28 3-15 22-15 21v-11zm-595-59c34-26 238-123 274-130l34-7-7 11c-4 7-15 12-24 12s-77 29-151 65c-136 66-161 76-126 49zm-339-60c-10-25-7-475 4-649 13-196 32-330 71-500l30-130 27-60c14-33 45-90 68-127 24-37 40-69 36-72-4-2-27-7-52-11-25-3-53-9-62-11l-18-5v-27l57-51 57-51-7-6c-3-4-45-8-92-9s-88-5-91-8c-20-20 63-62 144-73l54-7-14-12c-7-7-47-25-88-40l-75-26-80-6-80-5-62 21C2 953 0 953 0 941c0-5 21-18 48-28l47-18h210l70 24c39 13 103 41 143 62l74 39h58v10c0 6-6 10-13 10-20 0-166 89-220 135l-48 40 113 22 113 23 68 31 68 31 62-6 62-5-35 11c-19 6-37 13-39 15-2 1 13 29 34 60l38 58 92 90c50 50 108 104 128 121 21 17 37 36 37 43v11h-22c-39 0-101 38-188 116-47 41-98 82-113 90l-29 15 5-18c3-10 9-29 13-43 3-14 15-37 25-52l19-26-72-22c-40-12-94-33-121-47-27-13-51-22-54-20-2 3 23 32 56 65 34 32 61 64 61 69 0 6-14 40-30 77l-30 66 10 67c6 37 19 86 30 109l18 42 20 11c12 6 29 11 39 11h18l45-67c25-37 60-87 79-112 41-54 123-186 159-256l26-50 4 19 4 18-68 112c-150 247-359 533-499 684-48 50-84 92-81 92s34-18 68-41c35-22 124-70 198-105s206-100 293-144c86-45 157-79 157-76 0 10-150 92-295 161-285 136-428 217-517 295-31 28-63 50-71 50h-15l-6-16zm629-1125c-8-23-15-57-15-77v-35l-72 5-73 5-30 16c-16 9-43 28-60 42l-30 27 32-21c40-27 42-26 77 9 15 16 47 38 70 49l41 20 37 1h37l-14-41zm22-95c-3-3-12-4-19-1l-13 5 19 1c11 1 17-2 13-5zm281 1206c2-16 6-30 8-30s4 14 4 30v30h-17l5-30zm1772-80c-23-33-61-85-86-115-51-63-57-82-13-39 36 35 153 203 146 210-3 3-24-22-47-56zM0 2694c0-5 13-23 28-39 30-34 27-25-6 19-12 16-22 25-22 20zm1488-181c7-3 16-2 19 1 4 3-2 6-13 5l-19-1 13-5zm53-18c9-11 18-27 21-35l4-14 7 11 6 10-27 24-27 24 16-20zm-381-198c0-3 17-17 37-33 20-15 33-23 29-16-8 13-66 56-66 49zm1802-69c-46-67-126-234-157-326l-27-83-1-72-2-72 37-78c37-76 145-244 174-267l14-12-1 288-1 289-13-65-14-65 6-23 5-22-17-26-17-26-51-24c-29-13-60-24-69-24h-16l-12 36-12 37 4 71 5 71 25 70c36 99 88 208 137 289 47 77 49 101 3 34zm-1702-25c0-5 11-20 25-33l25-23v10c0 5-11 20-25 33l-25 23v-10zm697-551c-14-15-35-47-46-72l-21-45v-80l10 15c5 8 10 24 10 36 0 11 14 49 31 82l31 62h14c15 0 19 16 6 24l-9 5-26-27zm32-110c-4-98 2-128 15-79 8 32 6 138-4 162l-8 20-3-103zM0 1612c0-7 67-40 143-71l10-4-8 13c-7 11-125 70-140 70-3 0-5-4-5-8zm1466-34c-8-13-19-43-25-67l-10-45 14-32 13-32 22-7c12-4 24-5 27-2 2 3-5 8-16 12l-21 6-6 25c-8 33 1 113 14 126l11 11 15-12c17-14 46-94 47-130v-26l8 20 8 20-9 38c-12 53-34 94-58 107l-19 10-15-22zM58 1513l-58-4v-22l65 6c36 4 73 11 83 16l17 10-25-1c-14-1-51-3-82-5zm2044-110c-18-9-48-33-66-55l-33-39-18-54-17-55 7-61c4-33 11-73 15-87l8-27 1 75 1 75 12 40 12 40 4-17c4-22 16-23 32-3 13 15 50 21 50 7 0-4-20-23-45-42l-45-35 4-118 4-117 13-17c20-25 49-50 87-74 50-32 48-17-4 22-25 18-54 48-65 65l-19 31v53h31l-5-9-6-9 25-30 26-31 29-6 29-6 31 16c17 9 39 28 48 43l17 27h40l-3 29-4 29 17-7c9-3 19-6 21-6s4-22 4-49v-48l-23-34-22-34-35-18-35-18-40 5-40 5 19-11 18-10 40 5 39 5 33 26 33 25 17 34 16 35v34c0 47-26 152-49 196-37 72-114 136-186 152l-30 7 30 12 30 13 37-5 38-5 45-27 46-26 34-47 34-47 15-56c9-30 16-71 17-90v-34l9 22 9 22-3 63-2 64-29 53-29 53-44 39-45 39-36 10c-20 5-54 10-76 10h-40l-33-17zm213-284c-4-6-9-8-12-5s-21-1-41-10c-19-8-37-12-40-9-3 2 6 8 19 13s31 12 39 15 21 6 28 6l13 1-6-11zm-130-39c-3-5-14-10-23-9h-17l20 9c27 11 27 11 20 0zm-115-40c-8-5-19-10-23-10h-8l6 10c3 6 14 10 23 10h17l-15-10zm-845 307c-64-22-118-53-152-89-38-40-80-118-89-165l-7-35 12-54c7-30 16-54 21-54h8l-8 36-8 36 15 51c23 79 47 119 98 166 26 23 48 41 50 39s-8-44-22-93l-25-90 4-96 4-97 29-47 30-47 45-25c25-13 37-18 26-11-68 47-104 97-110 152-1 12-5 27-9 33l-7 11 31 6c18 3 36 6 41 6h9l-6-10c-3-5-15-10-26-10h-19v-10c0-5 6-10 13-10h12l-15-10-15-10h45v-38l31-26 31-26h54l45 28c24 16 50 36 58 45l14 17 13-11 14-11v54l20 5 20 5v14c0 8 5 14 11 14h11l-7-47c-4-27-15-66-24-88l-18-40-49-22c-27-12-58-25-69-29l-20-8 23-4 24-4 54 27 54 26v15c0 8 7 25 15 37 8 13 19 46 24 74l10 51-10 62-10 62-23 47-24 46-43 43-43 42-44 21c-51 25-50 32 2 18 109-30 200-126 224-236l9-38 7 51 8 52-22 41c-11 23-39 59-61 80l-39 39-48 22-47 22-55 4-55 4-40-13zm14-178c-13-10-28-19-32-19-5 0-15-7-24-15l-15-15-9 5c-5 4-9 13-9 21v14h19c11 0 23 5 26 11 9 14 48 28 59 21l9-5-24-18zm271-103c0-7-101-38-106-33-3 3 14 12 38 20 44 16 68 20 68 13zm-20-70c0-2-11-3-24-2l-23 1 4 12 5 13 19-11c10-5 19-11 19-13zM180 1142c0-10 44-32 63-32 7 0-3 9-21 20-36 22-42 24-42 12zm2800-152-13-30-60-60-59-60-41-11-41-11-43 7-43 6v-21h145l78-15c92-18 97-18 97-6v9l-52 7c-29 4-62 11-72 15l-20 7 45 26c24 14 56 29 72 32l27 7v64c0 35-2 64-4 64s-9-14-16-30zm-592-56-23-49-55-32c-30-18-48-33-42-33 40 0 122 73 142 124 18 48 3 41-22-10zm80-3c-33-29-35-47-4-35l16 6-5 8-5 8 27 21 28 20-12 1c-7 0-27-13-45-29zM1130 790c25-16 50-30 55-30 6 0-10 14-35 30s-49 30-55 30c-5 0 10-14 35-30zM0 744l1-19 27-30c46-50 134-121 178-143 23-12 71-26 107-33l66-12-5-9-5-8h-44c-24 0-50-3-59-6l-16-6v-36l16-6c9-3 22-6 30-6 7 0 57-29 109-64l95-65 29-6 29-6 5-18 4-17 40-12c22-7 52-12 66-12s29-5 32-10l6-10-25-10c-14-5-48-12-76-16-85-11-62-30 49-40l67-6 74 12c41 7 102 22 135 33l60 21 150-2 150-2 90 19 90 19 18-19c23-24 31-24 17 0-29 55-1 37 54-34 55-70 122-127 188-161l47-24h83l-6 27c-3 16-8 44-12 64l-6 37 70 4 69 3 76 38 76 37 40 47 41 46 133-16 133-17h189l66 14 67 15 91 47 91 48v28l-17-5c-120-39-259-77-271-75-8 2-17 8-19 13l-3 11 27 2c16 1 57 12 93 23l65 21 24 23 24 23-44 12c-24 6-75 21-114 32l-70 21 50 9 50 9 84 40c91 42 121 64 121 86v14l-34-26c-39-30-169-86-237-103l-46-12-31 10-32 9v-9c0-15 98-58 186-81l86-23-29-15c-15-8-80-27-143-43l-115-28-115-7-115-6-105 17-105 17-60-16-60-16-230-19-230-19-140-26c-77-14-158-30-180-35s-49-10-61-10h-21l32 68c18 37 30 68 26 70-4 1-42-14-86-34-43-20-114-47-159-62l-81-25-152-1-151-1-8 7-7 7 97 92c53 50 96 95 96 101v10l-17-7c-10-4-47-11-83-16l-65-10-81 11c-44 6-100 16-125 23l-44 13 60 36c62 38 182 128 171 128-4 0-42-18-85-41l-79-41H285l-58 20c-33 12-81 36-109 53l-49 32-35 45-34 45v-19zm1862-61c-33-49-35-59-3-23l31 35 20-25 20-25v13c0 22-20 52-35 52h-14l-19-27zM0 620c0-8 12-28 28-44l27-31-27 24-28 24v-20c0-11 7-34 15-49l15-29v-95H0V239l13 3c6 2 58 18 114 36l103 33v31l-13-5-12-5-39 67C97 517 50 586 25 610L0 633v-13zm135-70c4-19 12-44 17-55l8-20-5 45c-3 25-11 50-17 55l-10 10 7-35zM0 70V0h227c124 0 224 2 222 4-19 17-286 99-421 130l-28 6V70zm2836-38-7-12 6-10c3-5 14-10 23-10h17l-11 8c-6 4-13 14-16 22l-4 14-8-12z"/></g><g fill="#0b0d08" transform="matrix(.1 0 0 -.1 0 300)"><path d="M1482 2964c13-22 31-52 41-65l18-24-23 41c-13 22-31 52-41 65l-18 24 23-41zm85-14c3-30 7-57 9-59 7-8 2 64-6 89l-9 25 6-55zm834-27c-25-43-58-98-75-123s-29-50-28-57c1-6-42-105-97-220-207-437-271-586-256-601 2-3 27 4 54 16 60 25 217 65 233 60l12-4-44-50-43-49 54 55 54 55-24 3c-37 6-137-16-209-45-35-14-65-23-68-21-13 14 107 272 181 388l44 69 21 11 21 11 16-13c9-7 38-60 65-117l49-103 16-107 16-106 40-42 41-43-8-7-8-8-136 2c-165 1-161-5 9-15l124-8-60-31-60-32 23-7c41-12 182-83 182-92 0-17-26-41-68-63l-43-22-61 7-62 6-24 16-24 16 8-13c4-8 28-40 52-71l43-58h50l-6-10-6-9 28-14c46-23 154-55 208-61l50-5-27 10-28 11v54c0 30 7 98 16 152l17 97 1 220v220l-17 145c-26 210-64 425-100 559l-32 116-35 3-35 3-44-78zm-1591 53c0-3 15-46 34-94 18-48 36-94 39-102l5-15 1 13c1 7-15 54-34 104-34 87-45 111-45 94zm2096-51c-9-26-7-32 5-12 6 10 9 21 6 23-2 3-7-2-11-11zm-2276-90c0-7 141-77 146-73 2 2-30 21-71 41s-75 35-75 32zm-374-34c-3-4-8-75-12-157l-6-149 11-235c6-129 18-282 25-340 15-113 58-317 82-388 21-63 83-193 110-229 13-17 24-36 24-41v-10l-62-11c-34-6-66-15-72-21l-10-10 64-58 63-59-33-6c-18-4-64-7-102-7h-70l13-16c20-24 59-41 127-55l62-13-3-11c-2-5-46-25-98-42l-94-33H110l-52 20c-58 22-76 20-29-4l30-16 74-10 75-11 64 11c85 13 160 40 258 90l80 42 15-6 15-5v8c0 5-11 12-24 15-24 6-178 106-225 146-13 11-21 23-18 26 5 5 94 24 177 38 19 3 64 19 98 36l64 30h65v13c0 20 74 124 138 195 31 34 55 62 52 62-2 0-24-7-48-16l-44-16H735l-35 15c-39 16-140 88-140 99s92 56 180 89c41 15 68 28 59 29-25 0-157-47-195-71l-35-21-7 7-7 6 68 65c37 35 67 66 67 69 0 2-15 39-34 81l-34 77 8 26c4 14 13 52 20 84l11 57 26 30 25 30h57l63-91c116-168 159-234 200-307 22-40 43-71 46-68 11 12-209 357-352 549-47 65-136 174-196 243-61 68-107 124-104 124 4 0-6 10-22 22s-50 41-76 65c-47 43-62 50-72 34zm926-21v-25l5 13c2 6 2 18 0 25l-5 12v-25zm1654-56c-9-26-16-52-15-58 0-6 9 13 20 43 10 30 17 56 15 58s-11-17-20-43zm150 19-7-18 12 12c7 7 10 15 7 18s-9-2-12-12zm-900-211-200-207 183 180c154 152 233 237 219 234-2 0-93-93-202-207zm834 118c-12-16-19-30-16-30 2 0 14 14 26 30 12 17 19 30 16 30-2 0-14-13-26-30zm-2430-9c27-23 360-191 375-190 6 0-57 33-140 74-82 40-175 87-205 105l-55 31 25-20zm2321-7 1-19 5 13c3 7 2 16-1 19-3 4-6-2-5-13zm-9-44v-25l5 13c2 6 2 18 0 25l-5 12v-25zm52-27c-21-26-33-44-27-40 14 9 77 87 70 87-3 0-22-21-43-47zM900 2436c0-2 7-7 16-10l15-6-6 10c-6 10-25 14-25 6zm40-20c0-2 7-7 16-10l15-6-6 10c-6 10-25 14-25 6zm60-30c0-3 14-12 30-21 17-9 30-13 30-11 0 3-13 12-30 21-16 9-30 13-30 11zm849-103-34-38 38 34c34 33 42 41 34 41-2 0-19-17-38-37zm1119-50c-36-55-98-168-98-179 0-5 22 29 48 76s56 97 66 113c10 15 16 27 13 27-2 0-15-17-29-37zm-1597-1c-12-17-37-64-56-104l-36-74-4-55-4-54 10 54 9 55 43 79c23 44 47 82 53 84l10 3 21-92c12-51 25-109 29-128l8-35 6 30 6 30-7 15c-4 8-17 56-29 105-12 50-25 97-29 104l-8 13-22-30zm408-29c-19-21-48-54-64-73l-30-34 18 13c19 15 121 131 115 131-2 0-20-17-39-37zm-281-120c-8-10-19-25-23-33l-8-15 19 20c10 11 25 26 33 33l15 12h-11c-5 0-17-8-25-17zm121-63-64-70h17c10 0 18 4 18 9s23 37 51 70c28 34 49 61 47 61s-33-31-69-70zm-107 33c-6-15-13-59-16-97l-6-69 7 7c7 7 33 178 28 184-1 1-7-10-13-25zm1329-62c-29-69-26-78 5-12 13 30 23 56 20 58-2 2-13-19-25-46zM824 1879c68-62 150-126 180-140l21-10-25 18c-13 10-67 54-118 98-107 91-147 115-58 34zm1967-35 1-19 5 13c3 7 2 16-1 19-3 4-6-2-5-13zm-8-64v-45l4 23c2 12 2 32 0 45l-4 22v-45zm-3-86c0-16 5-36 10-44l9-15-6 40c-7 49-13 58-13 19zm-834-61c-28-42-56-116-55-142l1-16 5 15c3 8 14 39 25 68s31 66 45 82l25 30h-11c-6 0-22-17-35-37zm854-12c0-5 5-13 10-16l10-6v10c0 5-4 13-10 16l-10 6v-10zM5 1612c14-13 132-66 120-53-5 5-37 22-70 36-33 15-56 22-50 17zm1456-49c-7-15-15-48-18-73l-5-45 21-25 22-25-17 28-17 28 7 45c6 49 21 84 36 84 13 0 48-70 59-117l9-38 1 28c2 50-45 137-74 137h-12l-12-27zM95 1510l-40-7 35-1c19-1 42 3 50 8 16 11 14 11-45 0zm-82-17c9-2 23-2 30 0l12 5H-5l18-5zm1978-29 1-19 5 13c3 7 2 16-1 19-3 4-6-2-5-13zm784-57-30-61-40-29c-22-16-69-46-105-66-35-21-66-44-68-50l-4-12 51 32 52 31 32-5c18-3 73-17 122-31l90-25h63l62-1v17l-24-4c-45-9-245 31-285 56l-14 9 43 38 42 38 24 49c14 27 24 55 22 62l-3 13-30-61zm-29 38-20-15h11c6 0 16 7 23 15 16 19 11 19-14 0zm-48-22c7-3 16-2 19 1 4 3-2 6-13 5l-19-1 13-5zm-568-15c-19-5-46-18-60-28l-26-19-27-48c-14-27-31-69-36-94l-10-46 8-44 8-44 7 50c13 86 17 105 29 112l11 7 4-12 4-12 30 16 30 16 12-12 11-11-20-11c-10-6-30-22-43-35-12-13-27-23-32-23h-10v-132l18 7c9 4 24 9 32 10s22 5 30 8c75 31 188 67 207 67h23v10c0 25-31 81-66 120l-38 42-48 24c-26 13-58 24-70 24l-23 1 19 14 20 15h87l34-14c18-8 54-33 78-55l45-41 21-50c11-27 25-73 30-102l9-53 1 70 1 70-21 45-20 45-47 48-47 48-49 14c-56 17-67 17-116 3zm-955-86-60-29-43-47-44-47-21-47-21-47v-100l9-17 10-17 1 47 1 47 22 58 23 57 48 50 49 50h28l-18-57c-11-31-19-59-19-64 0-4 22 4 50 17 27 13 54 24 60 24 22 0 8-20-36-50l-46-31-14 12-14 12-7-7c-4-4-7-41-8-84v-77l40 3c22 2 77 14 123 28l83 25 9-6 10-6v20l56 20 55 21 11-6 11-7-7 29c-4 16-24 53-44 83l-37 55-43 33-43 32-42 13-42 12 33 4 32 3 54-24 53-25 42-38 43-38 24-48c13-26 24-60 25-75l1-28 10 43 9 42-28 51-27 51-39 33c-22 19-56 42-76 52l-36 17-75 4-75 3-60-29zm-985-186c0-2 7-7 16-10l15-6-6 10c-6 10-25 14-25 6zm2786-161-20-37-57-52-56-52-34-11-34-11 39-1 38-1 19 24 19 24 51 18c28 11 53 24 56 30 2 6 3 33 1 58l-3 47-19-36zm-643-32-12-38 15 19c12 17 20 56 11 56-1 0-7-17-14-37zm-811-3v-25l5 13c2 6 2 18 0 25l-5 12v-25zm512-7c8-16 31-42 52-59 64-50 72-51 17 0-29 26-55 56-58 66-4 11-11 20-16 20h-10l15-27zm-523-30c-1-6-4-20-7-30l-6-18 12 18c6 10 9 23 6 30l-4 12-1-12zm-371-9c0-11 38-74 45-74 2 0-5 17-17 38-27 46-28 48-28 36zm287-104c-69-33-81-43-40-31 38 11 90 38 98 51s11 14-58-20zm1448 15c6-2 36-8 68-13l57-9v9c0 4-8 8-19 8-10 0-40 2-67 5s-44 3-39 0zM0 735c0-25 144-147 217-183l42-22 56-6 57-7 5-13 5-13 26 18c15 10 53 34 84 55s63 45 70 53l12 15-64-33-64-34-90 1h-91l-70 29-70 29-62 61c-35 33-63 56-63 50zm1875-35-6-10 15 6 15 6 15-29c18-33 21-25 4 12l-11 25h-13c-7 0-16-4-19-10zm1094-49c-39-30-120-68-197-91l-73-22-36 5-36 6 23-16c29-20 185-73 217-73h23v-10c0-21-116-59-284-91l-51-10-120 1h-120l-69 14-68 13-82-17-81-18-165-12c-182-13-362-38-544-76-65-14-120-23-123-20-3 2 9 34 26 70 17 37 31 68 31 71s-27-9-61-25c-33-17-101-44-151-61l-90-29-90-10-90-10-80 10c-45 5-84 12-87 16-3 3 15 22 39 42 69 56 155 140 150 145-3 3-25 1-50-3-25-5-74-9-110-9l-65-1-90 21c-49 11-110 23-135 25l-45 5-20-15-20-16 19-15c11-8 28-15 38-15h18l69-50c38-28 91-60 118-71 26-12 55-30 63-40l15-19 62-13c34-7 65-16 69-19l7-7-29-11c-16-6-54-15-84-19l-55-8 29-12 29-12h91l91-1 120 31 120 31 115-6 115-6 125 26 125 27 30-38c16-21 55-64 86-95l57-57 61-30 60-31h64l-7 54c-3 30-9 61-12 69l-5 15 40-5 40-6 48 12c26 7 72 24 102 39l56 26 50 52 50 52 53-8c29-5 106-14 171-20l119-12 103 16 104 17 53 25c29 15 51 28 48 31s-38-2-79-11l-74-17-26 10c-15 6-27 15-27 21v10h21c12 0 58 11 104 25l83 26 13 15 13 16-15 9c-8 5-21 9-28 9-8 0-53 12-100 26l-86 26 71 18 71 18 69 35c79 41 112 63 103 71-3 4-17-2-30-13zM27 587c16-18 49-69 73-113 24-43 54-93 67-110 12-17 23-33 23-37 0-3-43-20-95-37L0 258v-9c0-11-13-15 114 29l109 37 5 13 4 12-15-6-14-5-43 73C74 548 22 620 4 620c-3 0 7-15 23-33zm114-53 1-19 5 13c3 7 2 16-1 19-3 4-6-2-5-13zM0 122c0-4 28-13 63-19 35-7 127-33 206-58C347 19 419 0 428 2l17 3-140 47C121 114 0 142 0 122zM2835 10c3-5 11-10 16-10h10l-6 10c-3 6-11 10-16 10h-10l6-10z"/></g></g></svg>